<svg width="16" height="17" viewBox="0 0 16 17" fill="none" xmlns="http://www.w3.org/2000/svg">
<g clip-path="url(#clip0_23_487)">
<path d="M4.26666 8.49999L7.46666 11.1667L11.7333 5.83333M7.99999 15.9667C7.01946 15.9667 6.04852 15.7735 5.14262 15.3983C4.23672 15.0231 3.41361 14.4731 2.72026 13.7797C2.02692 13.0864 1.47693 12.2633 1.10169 11.3574C0.726456 10.4515 0.533325 9.48053 0.533325 8.49999C0.533325 7.51946 0.726456 6.54852 1.10169 5.64262C1.47693 4.73672 2.02692 3.91361 2.72026 3.22026C3.41361 2.52692 4.23672 1.97693 5.14262 1.60169C6.04852 1.22646 7.01946 1.03333 7.99999 1.03333C9.98028 1.03333 11.8795 1.81999 13.2797 3.22026C14.68 4.62053 15.4667 6.51971 15.4667 8.49999C15.4667 10.4803 14.68 12.3795 13.2797 13.7797C11.8795 15.18 9.98028 15.9667 7.99999 15.9667Z" stroke="#4ECB71" stroke-width="1.06667"/>
</g>
<defs>
<clipPath id="clip0_23_487">
<rect width="16" height="16" fill="white" transform="translate(0 0.5)"/>
</clipPath>
</defs>
</svg>
